<?xml version="1.0" encoding="utf-8"?>
<!-- Generator: Adobe Illustrator 16.0.0, SVG Export Plug-In . SVG Version: 6.00 Build 0)  -->
<!DOCTYPE svg PUBLIC "-//W3C//DTD SVG 1.1//EN" "http://www.w3.org/Graphics/SVG/1.1/DTD/svg11.dtd">
<svg version="1.1" xmlns="http://www.w3.org/2000/svg" xmlns:xlink="http://www.w3.org/1999/xlink" x="0px" y="0px"
	 width="409.667px" height="104px" viewBox="0 0 409.667 104" enable-background="new 0 0 409.667 104" xml:space="preserve">
<g id="Name">
	<g>
		<path d="M144.065,66.485c1.195,0.199,2.613,0.299,4.254,0.299c5.414,0,8.133-1.898,8.156-5.695c0-1.547-0.663-2.713-1.986-3.498
			c-1.324-0.785-3.381-1.611-6.17-2.479c-2.555-0.82-4.623-1.611-6.205-2.373s-2.936-1.863-4.061-3.305s-1.688-3.311-1.688-5.607
			c0-3.609,1.225-6.387,3.674-8.332c2.449-1.945,5.619-2.918,9.51-2.918c1.688,0,3.439,0.158,5.256,0.475
			c1.816,0.316,3.363,0.65,4.641,1.002c1.277,0.352,2.08,0.586,2.408,0.703l-0.211,9.703h-4.676l-1.16-5.625
			c-0.141-0.047-0.452-0.141-0.932-0.281c-0.48-0.141-1.155-0.27-2.021-0.387c-0.867-0.117-1.828-0.176-2.883-0.176
			c-4.266,0-6.398,1.605-6.398,4.816c0,1.547,0.686,2.736,2.057,3.568s3.439,1.705,6.205,2.619c2.484,0.867,4.523,1.67,6.117,2.408
			c1.594,0.738,2.941,1.805,4.043,3.199c1.102,1.395,1.652,3.146,1.652,5.256c0,3.984-1.5,7.031-4.5,9.141
			c-3,2.109-6.773,3.164-11.32,3.164c-1.969,0-3.797-0.118-5.484-0.352c-1.688-0.234-3.036-0.469-4.043-0.703
			c-1.008-0.234-1.629-0.41-1.863-0.527V59.928h5.063l0.773,6.188C142.272,66.163,142.87,66.286,144.065,66.485z"/>
		<path d="M189.44,32.577c5.085,0,8.935,1.682,11.549,5.045c2.613,3.363,3.92,7.928,3.92,13.693c0,6.375-1.629,11.443-4.887,15.205
			c-3.258,3.762-8.109,5.643-14.555,5.643c-2.063,0-4.219-0.329-6.469-0.984v11.426l7.559,1.441v3.973h-20.531v-3.973l5.766-1.441
			V39.045l-6.117-1.441v-3.938l12.234-0.352l0.598,4.008C181.905,34.159,185.55,32.577,189.44,32.577z M179.966,65.448
			c0.55,0.211,1.394,0.428,2.531,0.65c1.137,0.223,2.49,0.334,4.061,0.334c7.195,0,10.793-4.805,10.793-14.414
			c0-4.172-0.779-7.494-2.338-9.967c-1.559-2.473-3.897-3.709-7.014-3.709c-1.922,0-3.557,0.369-4.904,1.107
			c-1.348,0.738-2.368,1.541-3.059,2.408c-0.691,0.867-1.037,1.371-1.037,1.512v21.621
			C179.092,65.084,179.415,65.237,179.966,65.448z"/>
		<path d="M238.823,37.727c2.977,3.434,4.465,8.08,4.465,13.939c0,4.031-0.744,7.605-2.232,10.723s-3.598,5.525-6.328,7.225
			s-5.877,2.549-9.439,2.549c-5.461,0-9.703-1.641-12.727-4.922s-4.535-8.109-4.535-14.484c0-4.031,0.779-7.576,2.338-10.635
			c1.559-3.059,3.721-5.414,6.486-7.066c2.765-1.652,5.941-2.479,9.527-2.479C231.698,32.577,235.847,34.293,238.823,37.727z
			 M218.134,41.84c-1.7,2.332-2.549,5.842-2.549,10.529c0,9.352,3.363,14.039,10.09,14.063c3.516,0,6.07-1.201,7.664-3.604
			c1.594-2.402,2.391-6.006,2.391-10.811c0-9.117-3.234-13.676-9.703-13.676C222.463,38.342,219.833,39.508,218.134,41.84z"/>
		<path d="M276.851,37.727c2.977,3.434,4.465,8.08,4.465,13.939c0,4.031-0.744,7.605-2.232,10.723s-3.598,5.525-6.328,7.225
			s-5.877,2.549-9.439,2.549c-5.461,0-9.704-1.641-12.727-4.922s-4.535-8.109-4.535-14.484c0-4.031,0.779-7.576,2.338-10.635
			s3.721-5.414,6.486-7.066s5.941-2.479,9.528-2.479C269.726,32.577,273.875,34.293,276.851,37.727z M256.161,41.84
			c-1.699,2.332-2.549,5.842-2.549,10.529c0,9.352,3.363,14.039,10.09,14.063c3.516,0,6.07-1.201,7.664-3.604
			s2.391-6.006,2.391-10.811c0-9.117-3.234-13.676-9.703-13.676C260.491,38.342,257.86,39.508,256.161,41.84z"/>
		<path d="M292.365,19.059c2.309-2.496,5.596-3.744,9.861-3.744c2.016,0,3.832,0.188,5.449,0.563s2.918,0.779,3.902,1.213
			s1.477,0.674,1.477,0.721v9h-5.063l-1.09-5.766c-0.188-0.047-0.686-0.117-1.494-0.211s-1.74-0.141-2.795-0.141
			c-2.391,0-4.072,0.615-5.045,1.846s-1.459,3.018-1.459,5.361v5.766h9.527l-0.246,5.379h-9.281v26.648l7.207,1.793v3.973h-20.531
			v-3.973l6.117-1.793V39.045h-6.469V34.37l6.469-0.703v-4.324C288.902,24.983,290.056,21.555,292.365,19.059z"/>
		<path d="M376.402,65.834l-9.211-13.816l9-13.324l6.117-1.09v-4.289l-10.441,0.352l-8.613,13.676l-5.555-9.281l2.531-0.457v-4.289
			l-16.418,0.352v3.938l5.52,1.02l9.246,13.746l-9.734,14.34l-5.344,0.208l-5.719-0.646l0.031-22.516
			c0-3.984-1.131-6.844-3.393-8.578s-5.572-2.602-9.932-2.602c-1.828,0-3.773,0.217-5.836,0.65s-3.85,0.879-5.361,1.336
			s-2.455,0.756-2.83,0.896l0.352,9h4.676l1.02-5.414c0.141-0.047,0.521-0.152,1.143-0.316s1.471-0.328,2.549-0.492
			s2.262-0.246,3.551-0.246c2.227,0,3.926,0.551,5.098,1.652s1.758,2.707,1.758,4.816v5.766h-5.766c-5.32,0-9.41,0.861-12.27,2.584
			s-4.289,4.576-4.289,8.561c0,3.422,0.949,6.076,2.848,7.963s4.547,2.83,7.945,2.83c2.273,0,4.424-0.568,6.451-1.705
			s3.814-2.479,5.361-4.025l1.512,5.027h10.676h1.092h9.35l8.93-14.344l5.906,9.527l-2.883,0.844v3.973h17.578v-3.973
			L376.402,65.834z M330.605,60.667c0,0.094-0.504,0.645-1.512,1.652s-2.227,1.945-3.656,2.813s-2.941,1.301-4.535,1.301
			c-1.641,0-2.93-0.492-3.867-1.477s-1.406-2.297-1.406-3.938c0-2.156,0.768-3.715,2.303-4.676s4.084-1.441,7.646-1.441h5.027
			V60.667z"/>
	</g>
</g>
<g id="Logo">
	<g>
		<path d="M36.107,21.361c-1.278,0.457-2.18,1.225-2.707,2.303s-0.791,2.602-0.791,4.57v12.305c0,2.438-0.563,4.512-1.688,6.223
			s-2.79,2.977-4.992,3.797c2.203,0.82,3.867,2.08,4.992,3.779s1.688,3.779,1.688,6.24v15.188c0,1.969,0.264,3.492,0.791,4.57
			c0.527,1.077,1.429,1.846,2.707,2.303c1.277,0.457,3.064,0.686,5.361,0.686V88h-3.234c-4.359,0-7.488-0.927-9.387-2.777
			C26.949,83.371,26,80.218,26,75.766V60.578c0-2.391-0.504-4.236-1.512-5.537c-1.008-1.301-2.79-1.951-5.344-1.951v-5.063
			c2.554,0,4.336-0.645,5.344-1.934C25.495,44.805,26,42.953,26,40.539V28.234c0-4.453,0.949-7.605,2.848-9.457S33.875,16,38.234,16
			h3.234v4.676C39.171,20.676,37.384,20.904,36.107,21.361z"/>
		<path fill="#8A2164" d="M57.89,69.58c0.68,0.293,1.605,0.568,2.777,0.826c1.172,0.258,2.449,0.387,3.832,0.387
			c2.883,0,5.443-0.68,7.682-2.039c2.238-1.359,3.357-3.246,3.357-5.66c0-1.547-0.48-2.842-1.441-3.885
			c-0.961-1.043-2.15-1.893-3.568-2.549c-1.418-0.656-3.37-1.441-5.854-2.355c-3.258-1.148-5.889-2.227-7.893-3.234
			s-3.715-2.461-5.133-4.359c-1.418-1.898-2.127-4.336-2.127-7.313c0-4.758,1.623-8.332,4.869-10.723
			c3.246-2.391,7.318-3.586,12.217-3.586c2.016,0,4.148,0.217,6.398,0.65s4.171,0.879,5.766,1.336
			c1.594,0.457,2.602,0.756,3.023,0.896l-0.352,12.234h-4.676l-2.461-7.699c-0.188-0.047-0.645-0.182-1.371-0.404
			c-0.727-0.223-1.665-0.428-2.813-0.615c-1.148-0.188-2.297-0.281-3.445-0.281c-3.071,0-5.438,0.686-7.102,2.057
			c-1.665,1.371-2.496,3.018-2.496,4.939c0,1.547,0.48,2.842,1.441,3.885c0.961,1.043,2.162,1.904,3.604,2.584
			s3.463,1.477,6.064,2.391c3.117,1.102,5.672,2.145,7.664,3.129c1.992,0.984,3.686,2.373,5.08,4.166
			c1.394,1.793,2.092,4.061,2.092,6.803c0,3.445-0.844,6.357-2.531,8.736s-3.955,4.143-6.803,5.291
			c-2.848,1.147-6.006,1.723-9.475,1.723c-2.25,0-4.465-0.211-6.645-0.633s-3.99-0.861-5.432-1.318s-2.361-0.756-2.76-0.896V61.441
			h5.766L56.589,69C56.777,69.094,57.21,69.287,57.89,69.58z"/>
		<path d="M102.078,18.76c1.898,1.84,2.848,4.998,2.848,9.475v12.305c0,2.391,0.504,4.236,1.512,5.537
			c1.007,1.301,2.789,1.951,5.344,1.951v5.063c-2.555,0-4.336,0.645-5.344,1.934c-1.008,1.289-1.512,3.141-1.512,5.555v15.188
			c0,4.452-0.949,7.605-2.848,9.457C100.179,87.073,97.05,88,92.691,88h-3.234v-4.676c2.297,0,4.083-0.229,5.361-0.686
			c1.277-0.457,2.18-1.226,2.707-2.303c0.527-1.078,0.791-2.602,0.791-4.57V60.578c0-2.438,0.563-4.512,1.688-6.223
			s2.789-2.977,4.992-3.797c-2.203-0.82-3.867-2.08-4.992-3.779s-1.688-3.779-1.688-6.24V28.234c0-1.969-0.264-3.492-0.791-4.57
			s-1.43-1.846-2.707-2.303c-1.278-0.457-3.064-0.686-5.361-0.686V16h3.234C97.05,16,100.179,16.92,102.078,18.76z"/>
	</g>
</g>
</svg>
