<?xml version="1.0" encoding="utf-8"?>
<!-- Generator: Adobe Illustrator 16.0.0, SVG Export Plug-In . SVG Version: 6.00 Build 0)  -->
<!DOCTYPE svg PUBLIC "-//W3C//DTD SVG 1.1//EN" "http://www.w3.org/Graphics/SVG/1.1/DTD/svg11.dtd">
<svg version="1.1" xmlns="http://www.w3.org/2000/svg" xmlns:xlink="http://www.w3.org/1999/xlink" x="0px" y="0px" width="256px"
	 height="256px" viewBox="0 0 256 256" enable-background="new 0 0 256 256" xml:space="preserve">
<g id="_x32_56">
	<g>
		<path fill="#231F20" d="M54.005,41.19c-3.616,1.295-6.168,3.469-7.66,6.524c-1.493,3.055-2.239,7.371-2.239,12.949v34.863
			c0,6.906-1.592,12.783-4.776,17.631c-3.184,4.848-7.895,8.434-14.128,10.758c6.233,2.324,10.944,5.894,14.128,10.708
			c3.184,4.814,4.776,10.708,4.776,17.681v43.031c0,5.578,0.746,9.895,2.239,12.949c1.492,3.052,4.044,5.229,7.66,6.524
			c3.615,1.295,8.671,1.941,15.173,1.941V230h-9.153c-12.337,0-21.192-2.626-26.565-7.869c-5.373-5.247-8.059-14.181-8.059-26.795
			v-43.031c0-6.773-1.428-12.003-4.278-15.688c-2.853-3.686-7.895-5.528-15.123-5.528v-14.344c7.229,0,12.271-1.827,15.123-5.479
			c2.851-3.652,4.278-8.899,4.278-15.739V60.664c0-12.617,2.686-21.549,8.059-26.795C38.833,28.623,47.688,26,60.025,26h9.153
			v13.248C62.676,39.248,57.62,39.896,54.005,41.19z"/>
		<path fill="#892164" d="M105.979,177.81c1.924,0.831,4.542,1.61,7.86,2.342c3.316,0.729,6.93,1.096,10.845,1.096
			c8.158,0,15.404-1.927,21.739-5.778c6.331-3.851,9.502-9.196,9.502-16.036c0-4.383-1.359-8.053-4.08-11.007
			c-2.722-2.955-6.085-5.362-10.098-7.222c-4.016-1.86-9.536-4.084-16.565-6.674c-9.22-3.255-16.665-6.31-22.336-9.165
			c-5.671-2.854-10.513-6.972-14.526-12.352c-4.014-5.379-6.02-12.285-6.02-20.719c0-13.48,4.592-23.606,13.78-30.381
			c9.187-6.773,20.71-10.16,34.574-10.16c5.704,0,11.74,0.614,18.108,1.842c6.366,1.229,11.804,2.491,16.316,3.786
			c4.51,1.294,7.362,2.141,8.557,2.54l-0.995,34.665h-13.232l-6.966-21.814c-0.532-0.133-1.825-0.515-3.879-1.146
			c-2.058-0.63-4.713-1.212-7.959-1.742c-3.25-0.532-6.503-0.797-9.751-0.797c-8.69,0-15.388,1.942-20.098,5.827
			c-4.71,3.885-7.063,8.55-7.063,13.995c0,4.383,1.358,8.052,4.079,11.007c2.72,2.956,6.119,5.396,10.198,7.322
			c4.079,1.925,9.8,4.184,17.164,6.773c8.817,3.12,16.051,6.076,21.688,8.865c5.635,2.789,10.429,6.723,14.376,11.804
			c3.944,5.08,5.92,11.504,5.92,19.274c0,9.761-2.388,18.013-7.163,24.753s-11.194,11.736-19.253,14.991
			c-8.059,3.251-16.998,4.88-26.813,4.88c-6.367,0-12.635-0.597-18.804-1.792c-6.168-1.196-11.292-2.441-15.372-3.736
			c-4.079-1.295-6.682-2.141-7.81-2.54v-35.76h16.317l4.079,21.416C102.829,176.432,104.054,176.98,105.979,177.81z"/>
		<path fill="#231F20" d="M222.54,33.819c5.372,5.213,8.059,14.162,8.059,26.845v34.863c0,6.774,1.428,12.003,4.279,15.689
			c2.849,3.685,7.893,5.528,15.122,5.528v14.344c-7.229,0-12.273,1.826-15.122,5.479c-2.852,3.652-4.279,8.898-4.279,15.738v43.031
			c0,12.614-2.687,21.548-8.059,26.795c-5.372,5.243-14.228,7.869-26.563,7.869h-9.154v-13.249c6.501,0,11.556-0.646,15.173-1.941
			c3.615-1.295,6.169-3.473,7.66-6.524c1.493-3.055,2.239-7.371,2.239-12.949v-43.031c0-6.906,1.591-12.783,4.775-17.631
			c3.184-4.848,7.893-8.434,14.128-10.758c-6.235-2.324-10.944-5.894-14.128-10.708c-3.185-4.815-4.775-10.709-4.775-17.682V60.664
			c0-5.578-0.746-9.895-2.239-12.949c-1.491-3.055-4.045-5.229-7.66-6.524c-3.617-1.295-8.672-1.943-15.173-1.943V26h9.154
			C208.313,26,217.168,28.606,222.54,33.819z"/>
	</g>
</g>
<g id="_x31_28">
</g>
<g id="_x36_4">
</g>
<g id="_x33_2">
</g>
<g id="_x31_6">
</g>
</svg>
