<?xml version="1.0" encoding="utf-8"?>
<!-- Generator: Adobe Illustrator 16.0.0, SVG Export Plug-In . SVG Version: 6.00 Build 0)  -->
<!DOCTYPE svg PUBLIC "-//W3C//DTD SVG 1.1//EN" "http://www.w3.org/Graphics/SVG/1.1/DTD/svg11.dtd">
<svg version="1.1" id="Layer_1" xmlns="http://www.w3.org/2000/svg" xmlns:xlink="http://www.w3.org/1999/xlink" x="0px" y="0px"
	 width="256px" height="256px" viewBox="0 0 256 256" enable-background="new 0 0 256 256" xml:space="preserve">
<g>
	<g>
		<path fill="#2C2255" d="M142.5,237C82.122,237,33,187.879,33,127.5C33,67.122,82.122,18,142.5,18C202.879,18,252,67.122,252,127.5
			C252,187.879,202.879,237,142.5,237z"/>
		<path d="M142.5,20c28.715,0,55.71,11.182,76.014,31.486C238.818,71.79,250,98.786,250,127.5c0,28.715-11.182,55.71-31.486,76.014
			C198.21,223.818,171.215,235,142.5,235c-28.714,0-55.71-11.182-76.014-31.486C46.182,183.21,35,156.215,35,127.5
			c0-28.714,11.182-55.71,31.486-76.014C86.79,31.182,113.786,20,142.5,20 M142.5,16C80.92,16,31,65.92,31,127.5
			C31,189.08,80.92,239,142.5,239c61.58,0,111.5-49.92,111.5-111.5C254,65.92,204.08,16,142.5,16L142.5,16z"/>
	</g>
	<linearGradient id="SVGID_1_" gradientUnits="userSpaceOnUse" x1="142.5" y1="205.5" x2="142.5" y2="49.5005">
		<stop  offset="0" style="stop-color:#463789"/>
		<stop  offset="1" style="stop-color:#2C2255"/>
	</linearGradient>
	<circle fill="url(#SVGID_1_)" cx="142.5" cy="127.5" r="78"/>
	<path fill="#F7941E" d="M22,127.5C22,67.081,68.394,17.506,127.5,12.436c-3.296-0.283-6.63-0.436-10-0.436
		C53.711,12,2,63.711,2,127.5S53.711,243,117.5,243c3.37,0,6.704-0.153,10-0.436C68.394,237.494,22,187.919,22,127.5z"/>
	<radialGradient id="SVGID_2_" cx="142.4717" cy="127.8086" r="102.535" gradientUnits="userSpaceOnUse">
		<stop  offset="0.6601" style="stop-color:#FFFFFF"/>
		<stop  offset="1" style="stop-color:#B2AEC1"/>
	</radialGradient>
	<path fill="url(#SVGID_2_)" d="M89.367,65.581c-2.595,0.928-4.427,2.487-5.498,4.677c-1.071,2.189-1.607,5.284-1.607,9.283v24.991
		c0,4.951-1.143,9.164-3.427,12.639c-2.285,3.474-5.666,6.046-10.14,7.711c4.474,1.666,7.854,4.225,10.14,7.676
		c2.285,3.451,3.427,7.676,3.427,12.675v30.846c0,3.998,0.536,7.093,1.607,9.283c1.071,2.188,2.902,3.748,5.498,4.677
		c2.595,0.928,6.223,1.392,10.889,1.392v9.497h-6.569c-8.854,0-15.209-1.883-19.065-5.641c-3.856-3.761-5.784-10.165-5.784-19.208
		v-30.846c0-4.855-1.025-8.604-3.07-11.247c-2.047-2.642-5.666-3.963-10.854-3.963V119.74c5.188,0,8.806-1.309,10.854-3.927
		c2.045-2.618,3.07-6.379,3.07-11.282V79.54c0-9.045,1.928-15.448,5.784-19.208c3.855-3.761,10.21-5.641,19.065-5.641h6.569v9.497
		C95.59,64.188,91.962,64.652,89.367,65.581z M126.667,163.514c1.381,0.596,3.26,1.155,5.641,1.679
		c2.38,0.523,4.974,0.785,7.783,0.785c5.854,0,11.055-1.381,15.602-4.142c4.544-2.761,6.819-6.593,6.819-11.495
		c0-3.143-0.975-5.772-2.929-7.891c-1.953-2.118-4.366-3.844-7.246-5.177c-2.882-1.333-6.844-2.928-11.889-4.783
		c-6.617-2.334-11.96-4.523-16.03-6.57c-4.07-2.046-7.545-4.998-10.425-8.854c-2.881-3.856-4.32-8.807-4.32-14.853
		c0-9.663,3.295-16.922,9.889-21.778c6.593-4.855,14.863-7.283,24.813-7.283c4.094,0,8.426,0.44,12.996,1.32
		c4.568,0.881,8.471,1.786,11.71,2.714c3.236,0.928,5.283,1.535,6.141,1.821l-0.715,24.849h-9.496l-4.998-15.638
		c-0.384-0.095-1.311-0.369-2.785-0.822c-1.476-0.452-3.382-0.868-5.712-1.249c-2.333-0.381-4.667-0.571-6.998-0.571
		c-6.236,0-11.043,1.393-14.424,4.177c-3.38,2.785-5.069,6.129-5.069,10.033c0,3.142,0.975,5.771,2.927,7.89
		c1.952,2.119,4.392,3.868,7.32,5.249c2.928,1.38,7.032,3,12.317,4.855c6.328,2.237,11.52,4.355,15.565,6.354
		c4.044,2,7.484,4.82,10.317,8.462c2.831,3.641,4.248,8.247,4.248,13.816c0,6.997-1.713,12.912-5.141,17.744
		c-3.427,4.831-8.033,8.413-13.816,10.746c-5.784,2.331-12.199,3.498-19.243,3.498c-4.57,0-9.068-0.428-13.495-1.285
		c-4.427-0.856-8.104-1.749-11.032-2.678c-2.927-0.929-4.796-1.534-5.605-1.82v-25.634h11.71l2.928,15.351
		C124.407,162.526,125.287,162.919,126.667,163.514z M210.321,60.296c3.855,3.737,5.783,10.152,5.783,19.244v24.991
		c0,4.856,1.024,8.604,3.071,11.246c2.044,2.642,5.665,3.963,10.853,3.963v10.282c-5.188,0-8.809,1.309-10.853,3.928
		c-2.047,2.618-3.071,6.378-3.071,11.282v30.846c0,9.043-1.928,15.447-5.783,19.208c-3.856,3.758-10.211,5.641-19.064,5.641h-6.57
		v-9.497c4.666,0,8.294-0.464,10.89-1.392c2.595-0.929,4.427-2.489,5.497-4.677c1.072-2.19,1.607-5.285,1.607-9.283v-30.846
		c0-4.951,1.143-9.164,3.427-12.64c2.286-3.474,5.665-6.045,10.14-7.711c-4.475-1.665-7.854-4.225-10.14-7.676
		c-2.284-3.451-3.427-7.676-3.427-12.674V79.54c0-3.999-0.535-7.093-1.607-9.283c-1.07-2.19-2.902-3.749-5.497-4.677
		c-2.596-0.928-6.224-1.393-10.89-1.393v-9.497h6.57C200.11,54.691,206.465,56.56,210.321,60.296z"/>
</g>
</svg>
