<?xml version="1.0" encoding="utf-8"?>
<!-- Generator: Adobe Illustrator 16.0.0, SVG Export Plug-In . SVG Version: 6.00 Build 0)  -->
<!DOCTYPE svg PUBLIC "-//W3C//DTD SVG 1.1//EN" "http://www.w3.org/Graphics/SVG/1.1/DTD/svg11.dtd">
<svg version="1.1" id="Layer_1" xmlns="http://www.w3.org/2000/svg" xmlns:xlink="http://www.w3.org/1999/xlink" x="0px" y="0px"
	 width="256px" height="256px" viewBox="0 0 256 256" enable-background="new 0 0 256 256" xml:space="preserve">
<g>
	<path fill="#231F20" d="M53.971,41.252c-3.618,1.294-6.171,3.467-7.664,6.52c-1.493,3.053-2.24,7.366-2.24,12.94V95.55
		c0,6.901-1.593,12.774-4.778,17.619c-3.186,4.844-7.898,8.428-14.135,10.75c6.236,2.322,10.949,5.89,14.135,10.7
		c3.185,4.812,4.778,10.7,4.778,17.668v43.001c0,5.574,0.747,9.888,2.24,12.94c1.493,3.05,4.046,5.226,7.664,6.52
		c3.617,1.294,8.675,1.94,15.18,1.94v13.239h-9.157c-12.343,0-21.202-2.624-26.577-7.863c-5.375-5.243-8.063-14.171-8.063-26.776
		v-43.001c0-6.769-1.428-11.994-4.28-15.677c-2.854-3.684-7.898-5.524-15.13-5.524v-14.334c7.232,0,12.276-1.825,15.13-5.475
		c2.852-3.649,4.28-8.893,4.28-15.728V60.712c0-12.608,2.688-21.534,8.063-26.776s14.234-7.863,26.577-7.863h9.157v13.238
		C62.646,39.311,57.587,39.958,53.971,41.252z"/>
	<path fill="#892164" d="M105.969,177.774c1.925,0.83,4.544,1.609,7.864,2.34c3.318,0.729,6.933,1.095,10.85,1.095
		c8.162,0,15.412-1.925,21.75-5.773c6.334-3.849,9.506-9.19,9.506-16.025c0-4.38-1.359-8.047-4.082-10.999
		c-2.723-2.953-6.088-5.358-10.102-7.217c-4.018-1.858-9.541-4.081-16.574-6.669c-9.224-3.252-16.673-6.305-22.347-9.158
		c-5.674-2.853-10.518-6.967-14.533-12.343c-4.016-5.375-6.022-12.276-6.022-20.704c0-13.471,4.594-23.59,13.786-30.359
		c9.19-6.769,20.719-10.152,34.589-10.152c5.707,0,11.746,0.613,18.117,1.841c6.369,1.229,11.809,2.489,16.324,3.783
		c4.512,1.294,7.365,2.14,8.561,2.538l-0.996,34.64h-13.238l-6.969-21.799c-0.533-0.133-1.826-0.515-3.881-1.146
		c-2.059-0.63-4.715-1.211-7.963-1.741c-3.252-0.531-6.506-0.797-9.756-0.797c-8.694,0-15.395,1.941-20.107,5.823
		c-4.713,3.882-7.067,8.544-7.067,13.985c0,4.38,1.359,8.046,4.081,10.999c2.721,2.953,6.122,5.392,10.203,7.316
		c4.081,1.924,9.805,4.181,17.171,6.769c8.822,3.118,16.059,6.071,21.699,8.858c5.637,2.787,10.434,6.719,14.383,11.796
		c3.945,5.076,5.922,11.496,5.922,19.261c0,9.754-2.389,18-7.166,24.735s-11.199,11.729-19.262,14.98
		c-8.063,3.249-17.006,4.877-26.825,4.877c-6.37,0-12.641-0.597-18.813-1.791c-6.171-1.195-11.298-2.439-15.379-3.733
		s-6.686-2.14-7.814-2.538v-35.734h16.325l4.081,21.4C102.817,176.397,104.043,176.945,105.969,177.774z"/>
	<path fill="#231F20" d="M222.584,33.886c5.375,5.209,8.063,14.151,8.063,26.826V95.55c0,6.77,1.428,11.995,4.281,15.678
		c2.85,3.683,7.896,5.524,15.129,5.524v14.334c-7.232,0-12.279,1.824-15.129,5.475c-2.854,3.649-4.281,8.892-4.281,15.727v43.001
		c0,12.605-2.688,21.533-8.063,26.776c-5.375,5.239-14.234,7.863-26.576,7.863h-9.158v-13.239c6.504,0,11.561-0.646,15.18-1.94
		c3.617-1.294,6.172-3.47,7.664-6.52c1.494-3.053,2.24-7.366,2.24-12.94v-43.001c0-6.901,1.592-12.773,4.777-17.618
		c3.186-4.844,7.896-8.428,14.135-10.75c-6.238-2.322-10.949-5.89-14.135-10.7c-3.186-4.812-4.777-10.701-4.777-17.669V60.712
		c0-5.574-0.746-9.888-2.24-12.94c-1.492-3.053-4.047-5.226-7.664-6.52c-3.619-1.294-8.676-1.941-15.18-1.941V26.072h9.158
		C208.35,26.072,217.209,28.677,222.584,33.886z"/>
</g>
</svg>
