<?xml version="1.0" encoding="utf-8"?>
<!-- Generator: Adobe Illustrator 16.0.0, SVG Export Plug-In . SVG Version: 6.00 Build 0)  -->
<!DOCTYPE svg PUBLIC "-//W3C//DTD SVG 1.1//EN" "http://www.w3.org/Graphics/SVG/1.1/DTD/svg11.dtd">
<svg version="1.1" xmlns="http://www.w3.org/2000/svg" xmlns:xlink="http://www.w3.org/1999/xlink" x="0px" y="0px" width="32px"
	 height="32px" viewBox="0 0 32 32" enable-background="new 0 0 32 32" xml:space="preserve">
<g id="_x32_56">
</g>
<g id="_x33_2">
	<g>
		<path fill="#231F20" d="M6.933,5.27c-0.46,0.165-0.784,0.442-0.975,0.831C5.769,6.489,5.675,7.04,5.675,7.751v4.444
			c0,0.879-0.202,1.628-0.607,2.245c-0.404,0.618-1.003,1.077-1.796,1.371c0.793,0.297,1.392,0.752,1.796,1.365
			c0.405,0.613,0.607,1.365,0.607,2.254v5.484c0,0.711,0.094,1.262,0.283,1.65c0.19,0.388,0.515,0.666,0.975,0.831
			c0.458,0.165,1.102,0.247,1.927,0.247v1.689H7.696c-1.567,0-2.692-0.335-3.375-1.002c-0.683-0.67-1.023-1.809-1.023-3.416v-5.484
			c0-0.862-0.181-1.53-0.544-1.999c-0.362-0.47-1.002-0.704-1.921-0.704v-1.828c0.919,0,1.559-0.233,1.921-0.699
			c0.363-0.465,0.544-1.135,0.544-2.005V7.751c0-1.607,0.341-2.746,1.023-3.416c0.683-0.667,1.808-1.002,3.375-1.002h1.163v1.688
			C8.034,5.021,7.391,5.104,6.933,5.27z"/>
		<path fill="#892164" d="M13.535,22.681c0.245,0.105,0.576,0.205,0.999,0.3c0.421,0.092,0.88,0.139,1.377,0.139
			c1.037,0,1.958-0.244,2.763-0.737c0.805-0.49,1.207-1.172,1.207-2.042c0-0.56-0.173-1.027-0.519-1.402
			c-0.346-0.377-0.772-0.684-1.282-0.922c-0.51-0.236-1.212-0.52-2.105-0.851c-1.171-0.415-2.117-0.804-2.837-1.168
			c-0.721-0.365-1.336-0.889-1.846-1.574s-0.766-1.566-0.766-2.641c0-1.718,0.583-3.009,1.752-3.872
			c1.167-0.863,2.631-1.295,4.391-1.295c0.727,0,1.492,0.078,2.302,0.235c0.809,0.157,1.5,0.316,2.074,0.482
			c0.571,0.165,0.935,0.272,1.086,0.324l-0.126,4.417h-1.682l-0.885-2.779c-0.068-0.018-0.231-0.066-0.493-0.146
			s-0.6-0.154-1.011-0.222c-0.414-0.067-0.827-0.102-1.239-0.102c-1.104,0-1.955,0.247-2.554,0.742
			c-0.598,0.495-0.897,1.089-0.897,1.784c0,0.559,0.173,1.024,0.519,1.401c0.345,0.377,0.777,0.688,1.296,0.935
			c0.518,0.245,1.246,0.532,2.181,0.863c1.121,0.396,2.039,0.772,2.756,1.129c0.716,0.355,1.325,0.857,1.825,1.506
			c0.502,0.647,0.752,1.464,0.752,2.454c0,1.246-0.303,2.297-0.908,3.154c-0.607,0.86-1.423,1.497-2.447,1.912
			c-1.023,0.414-2.158,0.621-3.406,0.621c-0.809,0-1.605-0.075-2.39-0.228c-0.783-0.153-1.435-0.312-1.952-0.476
			c-0.518-0.165-0.85-0.272-0.992-0.324v-4.559h2.073l0.519,2.73C13.136,22.506,13.29,22.575,13.535,22.681z"/>
		<path fill="#231F20" d="M28.345,4.329c0.683,0.664,1.023,1.806,1.023,3.422v4.444c0,0.862,0.181,1.528,0.544,1.999
			c0.361,0.47,1.002,0.705,1.921,0.705v1.828c-0.919,0-1.56,0.232-1.921,0.696c-0.363,0.466-0.544,1.135-0.544,2.007v5.484
			c0,1.607-0.341,2.746-1.023,3.416c-0.683,0.667-1.808,1.002-3.375,1.002h-1.163v-1.689c0.825,0,1.469-0.082,1.927-0.247
			c0.46-0.165,0.784-0.443,0.975-0.831c0.189-0.389,0.283-0.939,0.283-1.65v-5.484c0-0.881,0.202-1.63,0.607-2.248
			c0.404-0.617,1.002-1.074,1.796-1.371c-0.794-0.294-1.392-0.751-1.796-1.363c-0.405-0.613-0.607-1.364-0.607-2.253V7.751
			c0-0.711-0.094-1.262-0.283-1.65c-0.19-0.389-0.515-0.666-0.975-0.831c-0.458-0.165-1.102-0.249-1.927-0.249V3.333h1.163
			C26.537,3.333,27.662,3.666,28.345,4.329z"/>
	</g>
</g>
<g id="_x31_6">
</g>
</svg>
