<?xml version="1.0" encoding="utf-8"?>
<!-- Generator: Adobe Illustrator 16.0.0, SVG Export Plug-In . SVG Version: 6.00 Build 0)  -->
<!DOCTYPE svg PUBLIC "-//W3C//DTD SVG 1.1//EN" "http://www.w3.org/Graphics/SVG/1.1/DTD/svg11.dtd">
<svg version="1.1" xmlns="http://www.w3.org/2000/svg" xmlns:xlink="http://www.w3.org/1999/xlink" x="0px" y="0px" width="16px"
	 height="16px" viewBox="0 0 16 16" enable-background="new 0 0 16 16" xml:space="preserve">
<g id="_x32_56">
</g>
<g id="_x33_2">
</g>
<g id="_x31_6">
	<g>
		<path fill="#231F20" d="M3.147,2.376C2.91,2.464,2.744,2.614,2.646,2.823C2.548,3.032,2.499,3.329,2.499,3.71v2.395
			c0,0.475-0.105,0.877-0.313,1.211c-0.21,0.332-0.518,0.578-0.927,0.738c0.409,0.158,0.717,0.402,0.927,0.732
			c0.208,0.332,0.313,0.736,0.313,1.217v2.953c0,0.381,0.049,0.678,0.146,0.887c0.099,0.209,0.265,0.359,0.502,0.447
			c0.237,0.09,0.569,0.133,0.995,0.133v0.91H3.542c-0.809,0-1.39-0.18-1.742-0.539c-0.352-0.359-0.528-0.975-0.528-1.838v-2.953
			c0-0.467-0.092-0.824-0.281-1.078C0.805,8.671,0.475,8.544,0,8.544V7.562c0.475,0,0.805-0.127,0.99-0.379
			C1.18,6.935,1.271,6.573,1.271,6.104V3.71c0-0.863,0.177-1.479,0.528-1.838c0.353-0.359,0.934-0.539,1.742-0.539h0.601v0.908
			C3.717,2.241,3.385,2.286,3.147,2.376z"/>
		<path fill="#892164" d="M6.556,11.751c0.127,0.059,0.297,0.111,0.516,0.16c0.218,0.051,0.454,0.076,0.711,0.076
			c0.535,0,1.01-0.131,1.425-0.398c0.416-0.264,0.623-0.631,0.623-1.098c0-0.303-0.089-0.555-0.269-0.756
			c-0.178-0.203-0.396-0.369-0.66-0.496C8.639,9.112,8.276,8.958,7.814,8.78C7.211,8.558,6.721,8.349,6.351,8.151
			C5.978,7.956,5.66,7.673,5.398,7.304C5.134,6.935,5.004,6.46,5.004,5.884c0-0.926,0.3-1.621,0.902-2.088
			c0.603-0.463,1.358-0.697,2.267-0.697c0.376,0,0.771,0.043,1.188,0.127c0.417,0.086,0.774,0.172,1.069,0.26
			c0.295,0.092,0.483,0.148,0.561,0.176L10.926,6.04h-0.867L9.603,4.542c-0.036-0.01-0.12-0.035-0.255-0.076
			C9.212,4.421,9.038,4.38,8.825,4.345C8.612,4.308,8.398,4.29,8.187,4.29c-0.57,0-1.008,0.133-1.317,0.4
			C6.56,4.956,6.406,5.276,6.406,5.649c0,0.303,0.088,0.555,0.266,0.756c0.179,0.203,0.401,0.371,0.67,0.504
			C7.608,7.04,7.985,7.194,8.466,7.372c0.58,0.215,1.053,0.416,1.424,0.611c0.368,0.189,0.685,0.459,0.942,0.809
			c0.259,0.35,0.387,0.789,0.387,1.32c0,0.672-0.155,1.236-0.469,1.701c-0.313,0.463-0.732,0.805-1.262,1.027
			c-0.528,0.223-1.114,0.336-1.76,0.336c-0.416,0-0.827-0.041-1.232-0.123c-0.403-0.082-0.739-0.168-1.008-0.256
			c-0.267-0.09-0.438-0.146-0.513-0.176v-2.453h1.072l0.266,1.471C6.349,11.657,6.429,11.694,6.556,11.751z"/>
		<path fill="#231F20" d="M14.199,1.87c0.352,0.357,0.528,0.971,0.528,1.84v2.395c0,0.465,0.092,0.824,0.281,1.076
			C15.194,7.435,15.524,7.562,16,7.562v0.982c-0.476,0-0.806,0.127-0.991,0.377c-0.189,0.25-0.281,0.611-0.281,1.082v2.953
			c0,0.863-0.177,1.479-0.528,1.838c-0.353,0.359-0.934,0.539-1.742,0.539h-0.601v-0.91c0.426,0,0.758-0.043,0.995-0.133
			c0.237-0.088,0.403-0.238,0.502-0.447c0.098-0.209,0.146-0.506,0.146-0.887v-2.953c0-0.477,0.105-0.879,0.313-1.211
			c0.21-0.334,0.517-0.58,0.927-0.738c-0.41-0.16-0.717-0.406-0.927-0.736C13.605,6.987,13.5,6.583,13.5,6.104V3.71
			c0-0.381-0.049-0.678-0.146-0.887c-0.099-0.209-0.265-0.359-0.502-0.447c-0.237-0.09-0.569-0.135-0.995-0.135V1.333h0.601
			C13.266,1.333,13.847,1.511,14.199,1.87z"/>
	</g>
</g>
</svg>
