<?xml version="1.0" encoding="utf-8"?>
<!-- Generator: Adobe Illustrator 16.0.0, SVG Export Plug-In . SVG Version: 6.00 Build 0)  -->
<!DOCTYPE svg PUBLIC "-//W3C//DTD SVG 1.1//EN" "http://www.w3.org/Graphics/SVG/1.1/DTD/svg11.dtd">
<svg version="1.1" xmlns="http://www.w3.org/2000/svg" xmlns:xlink="http://www.w3.org/1999/xlink" x="0px" y="0px" width="16px"
	 height="16px" viewBox="0 0 16 16" enable-background="new 0 0 16 16" xml:space="preserve">
<g id="_x32_56">
</g>
<g id="_x33_2">
</g>
<g id="_x31_6">
	<g>
		<g>
			<circle fill="#2C2255" cx="9.239" cy="8.333" r="6.969"/>
		</g>
		<linearGradient id="SVGID_1_" gradientUnits="userSpaceOnUse" x1="9.2393" y1="13.208" x2="9.2393" y2="3.458">
			<stop  offset="0" style="stop-color:#463789"/>
			<stop  offset="1" style="stop-color:#463789;stop-opacity:0"/>
		</linearGradient>
		<circle fill="url(#SVGID_1_)" cx="9.239" cy="8.333" r="4.875"/>
		<path fill="#F7941E" d="M1.708,8.333c0-3.776,2.899-6.875,6.594-7.191C8.096,1.124,7.888,1.114,7.677,1.114
			c-3.986,0-7.219,3.232-7.219,7.219s3.232,7.219,7.219,7.219c0.211,0,0.419-0.01,0.625-0.027
			C4.607,15.208,1.708,12.109,1.708,8.333z"/>
		
			<radialGradient id="SVGID_2_" cx="18.3223" cy="14.5283" r="6.5875" gradientTransform="matrix(1.0665 0 0 1.0643 -10.2071 -7.1295)" gradientUnits="userSpaceOnUse">
			<stop  offset="0.6601" style="stop-color:#FFFFFF"/>
			<stop  offset="1" style="stop-color:#B2AEC1"/>
		</radialGradient>
		<path fill="url(#SVGID_2_)" d="M5.693,4.077c-0.178,0.063-0.303,0.17-0.376,0.319s-0.11,0.361-0.11,0.636v1.709
			c0,0.338-0.078,0.626-0.235,0.865C4.816,7.843,4.584,8.02,4.276,8.133c0.308,0.114,0.54,0.289,0.695,0.524
			c0.157,0.236,0.235,0.525,0.235,0.867v2.109c0,0.274,0.037,0.486,0.11,0.636s0.198,0.256,0.376,0.319
			c0.179,0.063,0.427,0.095,0.747,0.095v0.649H5.989c-0.606,0-1.041-0.129-1.306-0.386c-0.265-0.256-0.396-0.694-0.396-1.313V9.524
			c0-0.331-0.07-0.589-0.21-0.77c-0.141-0.18-0.388-0.271-0.744-0.271V7.781c0.356,0,0.604-0.09,0.744-0.269
			c0.14-0.179,0.21-0.437,0.21-0.771V5.032c0-0.619,0.132-1.058,0.396-1.313c0.265-0.258,0.699-0.386,1.306-0.386H6.44v0.649
			C6.12,3.982,5.872,4.015,5.693,4.077z M8.25,10.774c0.095,0.041,0.224,0.079,0.387,0.115s0.34,0.054,0.533,0.054
			c0.401,0,0.757-0.095,1.069-0.284c0.312-0.188,0.468-0.45,0.468-0.785c0-0.216-0.067-0.395-0.201-0.54s-0.3-0.263-0.497-0.354
			s-0.47-0.201-0.814-0.327c-0.453-0.16-0.82-0.31-1.098-0.449c-0.279-0.14-0.519-0.343-0.715-0.606
			C7.185,7.335,7.085,6.996,7.085,6.582c0-0.661,0.227-1.157,0.679-1.488c0.45-0.333,1.018-0.499,1.7-0.499
			c0.28,0,0.577,0.03,0.891,0.091c0.313,0.06,0.58,0.122,0.802,0.186c0.223,0.063,0.362,0.105,0.421,0.124l-0.049,1.7h-0.651
			l-0.342-1.07c-0.026-0.006-0.09-0.024-0.19-0.056c-0.102-0.031-0.232-0.06-0.393-0.085c-0.16-0.026-0.319-0.04-0.479-0.04
			c-0.426,0-0.756,0.096-0.987,0.286c-0.232,0.19-0.348,0.419-0.348,0.687c0,0.215,0.066,0.395,0.201,0.539
			c0.133,0.146,0.3,0.265,0.501,0.359c0.2,0.094,0.481,0.205,0.844,0.332c0.435,0.152,0.789,0.297,1.067,0.435
			c0.275,0.137,0.512,0.33,0.707,0.578c0.193,0.249,0.29,0.564,0.29,0.945c0,0.479-0.116,0.883-0.352,1.214
			c-0.234,0.33-0.551,0.575-0.947,0.734c-0.396,0.159-0.836,0.239-1.318,0.239c-0.313,0-0.622-0.029-0.925-0.089
			c-0.304-0.058-0.556-0.118-0.757-0.183c-0.2-0.063-0.328-0.104-0.383-0.124V9.644h0.803l0.2,1.052
			C8.096,10.707,8.155,10.734,8.25,10.774z M13.982,3.715c0.265,0.256,0.396,0.695,0.396,1.317v1.709c0,0.332,0.07,0.589,0.21,0.77
			c0.141,0.181,0.388,0.271,0.744,0.271v0.703c-0.356,0-0.604,0.09-0.744,0.269c-0.14,0.179-0.21,0.436-0.21,0.771v2.109
			c0,0.619-0.132,1.058-0.396,1.313c-0.265,0.257-0.699,0.386-1.306,0.386h-0.451v-0.649c0.32,0,0.568-0.032,0.747-0.095
			c0.178-0.063,0.303-0.17,0.376-0.319s0.11-0.361,0.11-0.636V9.524c0-0.339,0.078-0.626,0.235-0.864
			c0.155-0.238,0.388-0.413,0.695-0.527c-0.308-0.113-0.54-0.289-0.695-0.524c-0.157-0.237-0.235-0.526-0.235-0.867V5.032
			c0-0.274-0.037-0.486-0.11-0.636s-0.198-0.256-0.376-0.319c-0.179-0.063-0.427-0.095-0.747-0.095V3.333h0.451
			C13.283,3.333,13.718,3.46,13.982,3.715z"/>
	</g>
</g>
<g id="Palette">
</g>
</svg>
