<?xml version="1.0" encoding="utf-8"?>
<!-- Generator: Adobe Illustrator 16.0.0, SVG Export Plug-In . SVG Version: 6.00 Build 0)  -->
<!DOCTYPE svg PUBLIC "-//W3C//DTD SVG 1.1//EN" "http://www.w3.org/Graphics/SVG/1.1/DTD/svg11.dtd">
<svg version="1.1" xmlns="http://www.w3.org/2000/svg" xmlns:xlink="http://www.w3.org/1999/xlink" x="0px" y="0px" width="32px"
	 height="32px" viewBox="0 0 32 32" enable-background="new 0 0 32 32" xml:space="preserve">
<g id="_x32_56">
</g>
<g id="_x33_2">
	<g>
		<g>
			<circle fill="#4B6E00" cx="17.813" cy="16.5" r="13.938"/>
		</g>
		<linearGradient id="SVGID_1_" gradientUnits="userSpaceOnUse" x1="17.8125" y1="26.25" x2="17.8125" y2="6.75">
			<stop  offset="0" style="stop-color:#6B9E00"/>
			<stop  offset="1" style="stop-color:#6B9E00;stop-opacity:0"/>
		</linearGradient>
		<circle fill="url(#SVGID_1_)" cx="17.813" cy="16.5" r="9.75"/>
		<path fill="#F7941E" d="M2.75,16.5c0-7.553,5.799-13.749,13.188-14.383c-0.412-0.035-0.829-0.055-1.25-0.055
			C6.714,2.063,0.25,8.526,0.25,16.5s6.464,14.438,14.438,14.438c0.421,0,0.838-0.02,1.25-0.055C8.549,30.249,2.75,24.053,2.75,16.5
			z"/>
		
			<radialGradient id="SVGID_2_" cx="19.5508" cy="16.9307" r="13.1772" gradientTransform="matrix(0.9887 0 0 1.0007 -1.5166 -0.4424)" gradientUnits="userSpaceOnUse">
			<stop  offset="0.6601" style="stop-color:#FFFFFF"/>
			<stop  offset="1" style="stop-color:#B2AEC1"/>
		</radialGradient>
		<path fill="url(#SVGID_2_)" d="M11.064,8.497c-0.329,0.119-0.563,0.319-0.698,0.602c-0.136,0.281-0.204,0.68-0.204,1.194v3.213
			c0,0.637-0.145,1.179-0.436,1.626c-0.29,0.446-0.72,0.777-1.288,0.991c0.568,0.215,0.998,0.544,1.288,0.987
			c0.291,0.444,0.436,0.987,0.436,1.63v3.968c0,0.514,0.068,0.912,0.204,1.193s0.369,0.481,0.698,0.602
			c0.33,0.119,0.791,0.179,1.385,0.179v1.222h-0.835c-1.126,0-1.933-0.242-2.423-0.726s-0.734-1.308-0.734-2.47V18.74
			c0-0.624-0.131-1.106-0.391-1.446c-0.26-0.339-0.72-0.51-1.379-0.51v-1.321c0.659,0,1.119-0.169,1.379-0.506
			c0.26-0.336,0.391-0.82,0.391-1.451v-3.213c0-1.164,0.244-1.987,0.734-2.471c0.49-0.484,1.297-0.726,2.423-0.726h0.835v1.222
			C11.855,8.318,11.395,8.378,11.064,8.497z M15.805,21.092c0.175,0.076,0.414,0.148,0.717,0.216
			c0.302,0.067,0.631,0.101,0.988,0.101c0.744,0,1.404-0.178,1.982-0.532c0.577-0.355,0.867-0.848,0.867-1.479
			c0-0.404-0.125-0.742-0.373-1.015s-0.555-0.494-0.92-0.666c-0.367-0.171-0.87-0.376-1.511-0.615
			c-0.841-0.3-1.52-0.581-2.037-0.845c-0.517-0.263-0.959-0.643-1.324-1.139c-0.366-0.495-0.549-1.132-0.549-1.91
			c0-1.242,0.419-2.176,1.256-2.8c0.838-0.625,1.889-0.938,3.153-0.938c0.52,0,1.07,0.057,1.651,0.17
			c0.58,0.113,1.075,0.229,1.487,0.35c0.412,0.119,0.672,0.197,0.78,0.233l-0.091,3.196h-1.207l-0.635-2.012
			c-0.049-0.012-0.166-0.047-0.354-0.105s-0.43-0.111-0.727-0.16c-0.296-0.049-0.592-0.074-0.889-0.074
			c-0.792,0-1.402,0.18-1.832,0.537c-0.43,0.358-0.645,0.789-0.645,1.291c0,0.404,0.124,0.742,0.372,1.014
			c0.248,0.273,0.558,0.498,0.93,0.676s0.894,0.386,1.565,0.624c0.805,0.288,1.463,0.561,1.978,0.817
			c0.514,0.258,0.951,0.62,1.312,1.088c0.359,0.469,0.539,1.062,0.539,1.777c0,0.9-0.217,1.66-0.652,2.282
			c-0.436,0.621-1.021,1.082-1.756,1.382c-0.735,0.3-1.551,0.449-2.445,0.449c-0.58,0-1.152-0.055-1.715-0.165
			s-1.029-0.225-1.401-0.345c-0.372-0.119-0.609-0.196-0.712-0.233v-3.297h1.487l0.372,1.975
			C15.518,20.965,15.629,21.016,15.805,21.092z M26.434,7.817c0.49,0.48,0.734,1.306,0.734,2.476v3.213
			c0,0.625,0.131,1.107,0.391,1.447s0.72,0.51,1.379,0.51v1.321c-0.659,0-1.119,0.169-1.379,0.506
			c-0.26,0.336-0.391,0.819-0.391,1.45v3.968c0,1.162-0.244,1.986-0.734,2.47s-1.298,0.726-2.422,0.726h-0.836v-1.222
			c0.594,0,1.055-0.06,1.385-0.179c0.329-0.12,0.563-0.32,0.697-0.602c0.137-0.281,0.205-0.68,0.205-1.193V18.74
			c0-0.637,0.145-1.178,0.436-1.625c0.29-0.447,0.72-0.777,1.288-0.992c-0.568-0.214-0.998-0.543-1.288-0.986
			c-0.291-0.444-0.436-0.988-0.436-1.631v-3.213c0-0.515-0.068-0.913-0.205-1.194c-0.135-0.282-0.368-0.482-0.697-0.602
			c-0.33-0.119-0.791-0.179-1.385-0.179V7.097h0.836C25.136,7.097,25.943,7.337,26.434,7.817z"/>
	</g>
</g>
<g id="_x31_6">
</g>
<g id="Palette">
</g>
</svg>
