<?xml version="1.0" encoding="utf-8"?>
<!-- Generator: Adobe Illustrator 16.0.0, SVG Export Plug-In . SVG Version: 6.00 Build 0)  -->
<!DOCTYPE svg PUBLIC "-//W3C//DTD SVG 1.1//EN" "http://www.w3.org/Graphics/SVG/1.1/DTD/svg11.dtd">
<svg version="1.1" xmlns="http://www.w3.org/2000/svg" xmlns:xlink="http://www.w3.org/1999/xlink" x="0px" y="0px" width="256px"
	 height="256px" viewBox="0 0 256 256" enable-background="new 0 0 256 256" xml:space="preserve">
<g id="_x32_56">
	<g>
		<g>
			<path fill="#003E6E" d="M142.5,237C82.122,237,33,187.879,33,127.5C33,67.122,82.122,18,142.5,18
				C202.879,18,252,67.122,252,127.5C252,187.879,202.879,237,142.5,237z"/>
			<path d="M142.5,20c28.715,0,55.71,11.182,76.014,31.486C238.818,71.79,250,98.786,250,127.5c0,28.715-11.182,55.71-31.486,76.014
				C198.21,223.818,171.215,235,142.5,235c-28.714,0-55.71-11.182-76.014-31.486C46.182,183.21,35,156.215,35,127.5
				c0-28.714,11.182-55.71,31.486-76.014C86.79,31.182,113.786,20,142.5,20 M142.5,16C80.92,16,31,65.92,31,127.5
				C31,189.08,80.92,239,142.5,239c61.58,0,111.5-49.92,111.5-111.5C254,65.92,204.08,16,142.5,16L142.5,16z"/>
		</g>
		<linearGradient id="SVGID_1_" gradientUnits="userSpaceOnUse" x1="142.5" y1="205.5" x2="142.5" y2="49.5005">
			<stop  offset="0" style="stop-color:#0062AD"/>
			<stop  offset="1" style="stop-color:#0062AD;stop-opacity:0"/>
		</linearGradient>
		<circle fill="url(#SVGID_1_)" cx="142.5" cy="127.5" r="78"/>
		<path fill="#F7941E" d="M22,127.5C22,67.081,68.394,17.506,127.5,12.436c-3.296-0.283-6.63-0.436-10-0.436
			C53.711,12,2,63.711,2,127.5S53.711,243,117.5,243c3.37,0,6.704-0.153,10-0.436C68.394,237.494,22,187.919,22,127.5z"/>
		
			<radialGradient id="SVGID_2_" cx="142.6914" cy="127.8535" r="105.4172" gradientTransform="matrix(0.9887 0 0 1.0007 1.4216 -0.4424)" gradientUnits="userSpaceOnUse">
			<stop  offset="0.6601" style="stop-color:#FFFFFF"/>
			<stop  offset="1" style="stop-color:#B2AEC1"/>
		</radialGradient>
		<path fill="url(#SVGID_2_)" d="M88.521,63.477c-2.639,0.954-4.5,2.559-5.59,4.812c-1.087,2.253-1.632,5.438-1.632,9.551v25.712
			c0,5.094-1.161,9.428-3.484,13.003c-2.323,3.574-5.76,6.221-10.306,7.934c4.546,1.715,7.983,4.347,10.306,7.897
			s3.484,7.896,3.484,13.041v31.736c0,4.111,0.545,7.297,1.632,9.549c1.089,2.25,2.951,3.855,5.59,4.813
			c2.637,0.953,6.325,1.432,11.068,1.432v9.771h-6.677c-9.001,0-15.46-1.938-19.379-5.805c-3.919-3.869-5.879-10.459-5.879-19.76
			v-31.736c0-4.996-1.042-8.854-3.121-11.572c-2.081-2.717-5.76-4.078-11.033-4.078v-10.577c5.272,0,8.952-1.348,11.033-4.041
			c2.079-2.693,3.121-6.563,3.121-11.606V77.839c0-9.306,1.96-15.894,5.879-19.762c3.919-3.869,10.378-5.804,19.379-5.804h6.677
			v9.771C94.846,62.044,91.157,62.521,88.521,63.477z M126.436,164.234c1.402,0.613,3.313,1.189,5.733,1.727
			c2.419,0.539,5.054,0.809,7.912,0.809c5.953,0,11.236-1.422,15.859-4.262c4.616-2.842,6.932-6.783,6.932-11.826
			c0-3.234-0.993-5.939-2.979-8.119c-1.986-2.178-4.438-3.953-7.366-5.326c-2.929-1.369-6.957-3.01-12.083-4.922
			c-6.727-2.4-12.157-4.652-16.295-6.758c-4.137-2.106-7.67-5.143-10.597-9.109c-2.929-3.968-4.391-9.061-4.391-15.281
			c0-9.94,3.35-17.41,10.052-22.405c6.702-4.996,15.108-7.494,25.223-7.494c4.16,0,8.564,0.454,13.21,1.36
			c4.644,0.906,8.607,1.836,11.902,2.791c3.29,0.955,5.372,1.579,6.242,1.873l-0.725,25.566h-9.655l-5.08-16.089
			c-0.389-0.098-1.332-0.38-2.831-0.846c-1.501-0.465-3.438-0.894-5.808-1.285s-4.743-0.588-7.111-0.588
			c-6.339,0-11.225,1.433-14.663,4.298c-3.436,2.864-5.151,6.306-5.151,10.321c0,3.232,0.991,5.938,2.976,8.117
			c1.982,2.18,4.464,3.98,7.438,5.399c2.979,1.42,7.15,3.086,12.523,4.996c6.433,2.302,11.708,4.481,15.821,6.538
			c4.11,2.057,7.608,4.959,10.487,8.706c2.878,3.746,4.319,8.486,4.319,14.217c0,7.197-1.741,13.283-5.227,18.254
			c-3.483,4.971-8.166,8.656-14.044,11.057c-5.88,2.398-12.4,3.598-19.56,3.598c-4.646,0-9.22-0.439-13.72-1.322
			c-4.5-0.881-8.237-1.799-11.213-2.756c-2.975-0.953-4.875-1.576-5.698-1.871v-26.373h11.904l2.977,15.793
			C124.137,163.221,125.031,163.623,126.436,164.234z M211.468,58.039c3.921,3.846,5.878,10.444,5.878,19.8v25.712
			c0,4.995,1.042,8.852,3.123,11.569c2.076,2.719,5.756,4.078,11.031,4.078v10.577c-5.275,0-8.955,1.348-11.031,4.043
			c-2.081,2.691-3.123,6.561-3.123,11.607v31.736c0,9.301-1.957,15.891-5.878,19.76c-3.92,3.867-10.38,5.805-19.379,5.805h-6.679
			v-9.771c4.744,0,8.433-0.479,11.069-1.432c2.638-0.957,4.5-2.563,5.587-4.813c1.091-2.252,1.635-5.438,1.635-9.549v-31.736
			c0-5.096,1.161-9.428,3.484-13.004c2.322-3.575,5.758-6.22,10.306-7.935c-4.548-1.713-7.983-4.347-10.306-7.897
			c-2.323-3.55-3.484-7.897-3.484-13.039V77.839c0-4.113-0.544-7.298-1.635-9.551c-1.087-2.253-2.949-3.857-5.587-4.812
			c-2.637-0.955-6.325-1.433-11.069-1.433v-9.771h6.679C201.088,52.273,207.548,54.195,211.468,58.039z"/>
	</g>
</g>
<g id="_x31_28">
</g>
<g id="_x36_4">
</g>
<g id="_x33_2">
</g>
<g id="_x31_6">
</g>
<g id="Palette">
</g>
</svg>
