<?xml version="1.0" encoding="utf-8"?>
<!-- Generator: Adobe Illustrator 16.0.0, SVG Export Plug-In . SVG Version: 6.00 Build 0)  -->
<!DOCTYPE svg PUBLIC "-//W3C//DTD SVG 1.1//EN" "http://www.w3.org/Graphics/SVG/1.1/DTD/svg11.dtd">
<svg version="1.1" xmlns="http://www.w3.org/2000/svg" xmlns:xlink="http://www.w3.org/1999/xlink" x="0px" y="0px" width="16px"
	 height="16px" viewBox="0 0 16 16" enable-background="new 0 0 16 16" xml:space="preserve">
<g id="_x32_56">
</g>
<g id="_x33_2">
</g>
<g id="_x31_6">
	<g>
		<g>
			<circle fill="#006E56" cx="8.906" cy="8" r="6.969"/>
		</g>
		<linearGradient id="SVGID_1_" gradientUnits="userSpaceOnUse" x1="8.9063" y1="12.875" x2="8.9063" y2="3.125">
			<stop  offset="0" style="stop-color:#00A17E"/>
			<stop  offset="1" style="stop-color:#00A17E;stop-opacity:0"/>
		</linearGradient>
		<circle fill="url(#SVGID_1_)" cx="8.906" cy="8" r="4.875"/>
		<path fill="#F7941E" d="M1.375,8c0-3.776,2.899-6.875,6.594-7.191C7.763,0.791,7.555,0.781,7.344,0.781
			C3.357,0.781,0.125,4.014,0.125,8s3.232,7.219,7.219,7.219c0.211,0,0.419-0.01,0.625-0.027C4.274,14.875,1.375,11.776,1.375,8z"/>
		
			<radialGradient id="SVGID_2_" cx="18.0098" cy="14.2153" r="6.5882" gradientTransform="matrix(1.0665 0 0 1.0643 -10.2071 -7.1295)" gradientUnits="userSpaceOnUse">
			<stop  offset="0.6601" style="stop-color:#FFFFFF"/>
			<stop  offset="1" style="stop-color:#B2AEC1"/>
		</radialGradient>
		<path fill="url(#SVGID_2_)" d="M5.36,3.744c-0.178,0.063-0.303,0.17-0.376,0.319s-0.11,0.361-0.11,0.636v1.709
			c0,0.338-0.078,0.626-0.235,0.865C4.483,7.51,4.251,7.687,3.943,7.8c0.308,0.114,0.54,0.289,0.695,0.524
			C4.796,8.561,4.874,8.85,4.874,9.191v2.109c0,0.274,0.037,0.486,0.11,0.636s0.198,0.256,0.376,0.319
			c0.179,0.063,0.427,0.095,0.747,0.095V13H5.656c-0.606,0-1.041-0.129-1.306-0.386c-0.265-0.256-0.396-0.694-0.396-1.313V9.191
			c0-0.331-0.07-0.589-0.21-0.77C3.604,8.242,3.356,8.151,3,8.151V7.448c0.356,0,0.604-0.09,0.744-0.269
			c0.14-0.179,0.21-0.437,0.21-0.771V4.699c0-0.619,0.132-1.058,0.396-1.313C4.615,3.128,5.05,3,5.656,3h0.451v0.649
			C5.787,3.649,5.539,3.682,5.36,3.744z M7.917,10.441c0.095,0.041,0.224,0.079,0.387,0.115s0.34,0.054,0.533,0.054
			c0.401,0,0.757-0.095,1.069-0.284c0.312-0.188,0.468-0.45,0.468-0.785c0-0.216-0.067-0.395-0.201-0.54s-0.3-0.263-0.497-0.354
			S9.206,8.446,8.861,8.32c-0.453-0.16-0.82-0.31-1.098-0.449c-0.279-0.14-0.519-0.343-0.715-0.606
			C6.852,7.002,6.752,6.663,6.752,6.249c0-0.661,0.227-1.157,0.679-1.488c0.45-0.333,1.018-0.499,1.7-0.499
			c0.28,0,0.577,0.03,0.891,0.091c0.313,0.06,0.58,0.122,0.802,0.186c0.223,0.063,0.362,0.105,0.421,0.124l-0.049,1.7h-0.651
			l-0.342-1.07c-0.026-0.006-0.09-0.024-0.19-0.056C9.91,5.205,9.779,5.177,9.619,5.151C9.459,5.125,9.3,5.111,9.14,5.111
			c-0.426,0-0.756,0.096-0.987,0.286C7.92,5.588,7.805,5.816,7.805,6.084c0,0.215,0.066,0.395,0.201,0.539
			c0.133,0.146,0.3,0.265,0.501,0.359c0.2,0.094,0.481,0.205,0.844,0.332c0.435,0.152,0.789,0.297,1.067,0.435
			c0.275,0.137,0.512,0.33,0.707,0.578c0.193,0.249,0.29,0.564,0.29,0.945c0,0.479-0.116,0.883-0.352,1.214
			c-0.234,0.33-0.551,0.575-0.947,0.734C9.721,11.38,9.28,11.46,8.798,11.46c-0.313,0-0.622-0.029-0.925-0.089
			c-0.304-0.058-0.556-0.118-0.757-0.183c-0.2-0.063-0.328-0.104-0.383-0.124V9.311h0.803l0.2,1.052
			C7.763,10.374,7.822,10.401,7.917,10.441z M13.649,3.382c0.265,0.256,0.396,0.695,0.396,1.317v1.709c0,0.332,0.07,0.589,0.21,0.77
			C14.396,7.358,14.644,7.448,15,7.448v0.703c-0.356,0-0.604,0.09-0.744,0.269c-0.14,0.179-0.21,0.436-0.21,0.771v2.109
			c0,0.619-0.132,1.058-0.396,1.313C13.385,12.871,12.95,13,12.344,13h-0.451v-0.649c0.32,0,0.568-0.032,0.747-0.095
			c0.178-0.063,0.303-0.17,0.376-0.319s0.11-0.361,0.11-0.636V9.191c0-0.339,0.078-0.626,0.235-0.864
			c0.155-0.238,0.388-0.413,0.695-0.527c-0.308-0.113-0.54-0.289-0.695-0.524c-0.157-0.237-0.235-0.526-0.235-0.867V4.699
			c0-0.274-0.037-0.486-0.11-0.636s-0.198-0.256-0.376-0.319c-0.179-0.063-0.427-0.095-0.747-0.095V3h0.451
			C12.95,3,13.385,3.127,13.649,3.382z"/>
	</g>
</g>
<g id="Palette">
</g>
</svg>
